<svg width="26" height="26" viewBox="0 0 26 26" fill="none" xmlns="http://www.w3.org/2000/svg">
<g clip-path="url(#clip0_1_471)">
<path d="M25.3331 1.28022C25.1166 0.921875 24.8445 0.617187 24.513 0.392983C24.1834 0.168779 23.7848 0.032724 23.369 0.0346403H23.3632C23.3479 0.0346403 23.3287 0.0346403 23.3115 0.0346403V0.0193101H21.5657C21.4259 0.00972875 21.2994 0.00972875 21.1882 0.0078125C21.1212 0.0078125 21.0541 0.0135613 20.987 0.0193101H20.9851C20.644 0.0557192 20.3202 0.180277 20.0442 0.368072C19.546 0.705336 19.1857 1.22081 18.9385 1.8321C18.6913 2.44723 18.5591 3.16966 18.5572 3.96875C18.5591 5.03611 18.791 6.00958 19.2106 6.77034C19.4214 7.15168 19.682 7.4832 20.0116 7.73423C20.1745 7.8607 20.3566 7.96418 20.5559 8.03891C20.7245 8.10024 20.9046 8.13856 21.0905 8.14814V8.15006H21.1078C21.1346 8.15006 21.1614 8.15389 21.1901 8.15389V8.15006H23.0738C23.1716 8.16539 23.2693 8.17689 23.369 8.17689C23.5893 8.17689 23.8039 8.13473 24.0032 8.06191C24.352 7.9316 24.6452 7.71123 24.8905 7.44295C25.2565 7.03862 25.5228 6.52506 25.7106 5.93868C25.8984 5.35422 26 4.69502 26 3.99558C25.9981 2.92821 25.7662 1.9969 25.3331 1.28022ZM20.7072 6.4829C20.5175 6.27594 20.3221 5.93101 20.1841 5.4941C20.0442 5.05911 19.9599 4.53405 19.9599 3.96875C19.9599 3.11218 20.1592 2.41082 20.4256 1.97583C20.5578 1.75929 20.7015 1.60982 20.8318 1.52167C20.9238 1.46226 21.0024 1.42969 21.0828 1.41436H21.2783C21.171 1.64048 21.0752 1.88001 21.0004 2.13488C20.8299 2.69826 20.7379 3.32871 20.7379 3.99558C20.7379 4.65286 20.828 5.27373 20.9947 5.83328C21.0924 6.16672 21.2208 6.47332 21.3741 6.75501H21.148C21.1154 6.75118 21.0809 6.74543 21.0445 6.73202C20.9525 6.69752 20.8356 6.62279 20.7072 6.4829ZM24.1182 6.12264C23.9802 6.37176 23.825 6.55189 23.6928 6.65153C23.6257 6.70327 23.5663 6.73585 23.5127 6.7531C23.4609 6.77417 23.4149 6.78184 23.369 6.78184C23.2981 6.77992 23.2271 6.76459 23.1352 6.71094C23.0413 6.6592 22.932 6.5653 22.819 6.42541C22.6389 6.20121 22.4626 5.8582 22.338 5.43853C22.2134 5.01887 22.1406 4.52447 22.1406 3.99558C22.1406 3.45902 22.2154 2.95696 22.3437 2.53346C22.4702 2.10996 22.6504 1.76695 22.8324 1.54466C22.865 1.50634 22.8861 1.49101 22.9033 1.47951C22.9282 1.46418 22.9531 1.45268 23.0279 1.44119C23.0988 1.4316 23.2137 1.42777 23.3632 1.42777H23.369C23.4858 1.42969 23.5951 1.46035 23.7273 1.54658C23.9208 1.67497 24.1489 1.95283 24.3175 2.37441C24.4881 2.79407 24.5973 3.34979 24.5973 3.99558C24.5992 4.85215 24.398 5.62249 24.1182 6.12264Z" fill="white"/>
<path d="M23.5836 1.80176C23.5836 1.80176 22.9972 2.02405 22.6618 3.10674C22.2901 4.30058 22.773 6.30308 23.4992 6.38548C23.4992 6.38548 22.2977 3.88475 23.5836 1.80176Z" fill="#2ACDE8"/>
<path d="M14.0444 5.67598C14.9642 6.28344 15.9702 6.60729 16.5739 6.7261C16.5873 6.72802 16.5969 6.72993 16.6084 6.73185C16.4704 6.50573 16.3228 6.25087 16.1695 5.96726C15.7345 5.15859 15.267 4.1468 14.9584 3.09476C14.7898 2.52371 14.671 1.94117 14.6308 1.37012C13.847 1.58474 12.7394 2.15004 12.1913 3.63324C12.3523 3.96858 12.5478 4.27519 12.772 4.54922C13.1418 4.99954 13.5826 5.37321 14.0444 5.67598Z" fill="#18D6EA"/>
<path d="M19.8967 1.23633H15.5026C15.5026 1.23633 15.4969 1.23633 15.4892 1.23633C15.541 2.1983 15.8821 3.30015 16.3094 4.2832C16.7712 5.3544 17.3269 6.29146 17.6604 6.78202C17.6776 6.80694 17.6929 6.82801 17.7083 6.85101H19.9216L19.8967 1.23633Z" fill="white"/>
<path d="M16.0794 7.49294C15.7345 7.40671 15.3302 7.2764 14.9009 7.09627C14.0405 6.73601 13.0747 6.17071 12.2948 5.31031C12.1607 5.16275 12.0323 5.00754 11.9115 4.84082C11.8943 4.98646 11.879 5.13401 11.8694 5.29114V10.8292C12.7125 10.4459 13.6381 10.2006 14.6077 10.1355H14.6135C14.7534 10.1278 14.8933 10.124 15.0332 10.124C15.6425 10.124 16.2519 10.2045 16.8459 10.3597V7.7938C16.8383 7.73631 16.8364 7.68074 16.8364 7.63091C16.6332 7.61175 16.3841 7.56959 16.0794 7.49294Z" fill="white"/>
<path d="M4.11616 22.3571C4.3691 22.3015 4.60097 22.2306 4.85584 22.129C5.07812 22.0447 5.31574 21.9336 5.53611 21.8167C6.42718 21.3395 7.18603 20.665 7.83181 19.9483C8.15949 19.5919 8.45652 19.2182 8.74204 18.8445C9.02565 18.4728 9.29968 18.0991 9.55837 17.7273C9.81899 17.3556 10.0758 16.9915 10.3325 16.6427C10.5874 16.294 10.8442 15.949 11.101 15.6463C11.5915 15.0848 12.1703 14.6057 12.8122 14.2761C13.4484 13.9427 14.1364 13.7415 14.8013 13.7281C15.4682 13.7013 16.1082 13.8507 16.6773 14.1688C16.821 14.2455 16.9609 14.3336 17.0989 14.4294C17.166 14.4793 17.2311 14.531 17.2982 14.5847L17.3959 14.6651L17.4783 14.738L17.5991 14.8529L17.668 14.9238C17.7217 14.9794 17.7734 15.0369 17.8213 15.0982C17.9191 15.217 18.0053 15.3454 18.0858 15.4757C18.4077 16.0008 18.5495 16.6351 18.5074 17.2636C18.469 17.8941 18.2218 18.5054 17.8175 19.0132C17.7102 19.1435 17.6125 19.2508 17.4994 19.3485C17.3883 19.4482 17.2656 19.5325 17.1372 19.611C16.8805 19.7643 16.5853 19.8717 16.2768 19.9176C15.9683 19.9617 15.6445 19.9579 15.3283 19.8832C15.014 19.8122 14.7112 19.6762 14.4334 19.4884L14.3376 19.4213L14.2341 19.337C14.1747 19.2872 14.1191 19.2316 14.0635 19.176C13.9562 19.0611 13.8642 18.9327 13.7818 18.7928C13.6209 18.5149 13.5289 18.1834 13.5174 17.8404C13.5021 17.4974 13.5787 17.1429 13.7358 16.8133C13.7742 16.7328 13.8221 16.6466 13.8681 16.5757L13.9006 16.522L13.9524 16.4549L13.9773 16.4204L13.983 16.4109L13.9811 16.4128L13.9926 16.3994L14.0348 16.3457C14.1517 16.2097 14.2877 16.0832 14.4468 15.9797C14.7611 15.7766 15.1577 15.6578 15.5736 15.6673C15.9913 15.6693 16.4186 15.8149 16.7942 16.0774C16.5336 15.6999 16.1216 15.4106 15.6464 15.2573C15.1711 15.1097 14.6288 15.1097 14.1229 15.2841C13.87 15.3703 13.6247 15.4949 13.4062 15.6616L13.3258 15.7248L13.3066 15.7402C13.2855 15.7593 13.2951 15.7497 13.2894 15.7555L13.2817 15.7632L13.2491 15.79L13.182 15.8456L13.1054 15.9203C13.0019 16.0199 12.9176 16.1158 12.8295 16.2212C12.4903 16.6446 12.2603 17.164 12.1626 17.7158C12.0668 18.2696 12.1128 18.8541 12.3006 19.406C12.3945 19.6819 12.5248 19.9483 12.6876 20.1936C12.77 20.3162 12.8582 20.437 12.954 20.5481C12.9808 20.5788 12.9981 20.6018 13.0326 20.6382L13.0901 20.7033C13.1456 20.7608 13.1974 20.8125 13.2472 20.8624C14.0654 21.6595 15.244 22.1175 16.432 22.0792C17.0242 22.062 17.6221 21.9278 18.1739 21.6825C18.4518 21.5599 18.7143 21.4066 18.9596 21.2284C19.2068 21.0521 19.4368 20.847 19.6341 20.6439C20.4447 19.818 20.9755 18.7085 21.125 17.5491C21.2841 16.3879 21.0483 15.173 20.4735 14.1324C20.3317 13.8737 20.1649 13.6265 19.9791 13.3946C19.8871 13.2778 19.7913 13.1647 19.6916 13.0574L19.615 12.975L19.5249 12.8849L19.4023 12.7642L19.2336 12.609L19.0727 12.471C18.9654 12.3809 18.8542 12.2928 18.7392 12.2085C18.5112 12.0398 18.2698 11.8846 18.0168 11.7447C17.0031 11.189 15.8073 10.9322 14.6652 11.0012C13.5212 11.076 12.4385 11.44 11.5053 11.9977C10.5721 12.5592 9.77108 13.2969 9.15787 14.1612C8.86468 14.5751 8.61365 14.9737 8.37412 15.3799C8.13841 15.7842 7.91996 16.1847 7.7015 16.5776C7.48305 16.9704 7.27417 17.3594 7.05955 17.7369C6.84493 18.1125 6.62073 18.4766 6.39077 18.8292C5.92703 19.5286 5.41347 20.1706 4.78493 20.6803C4.62589 20.8106 4.4745 20.9275 4.29054 21.0425C4.14107 21.1421 3.95327 21.2437 3.77698 21.328C3.4148 21.4986 3.02196 21.6135 2.60805 21.6749C1.7783 21.7937 0.877653 21.673 0 21.4162C0.747347 21.9393 1.62692 22.3475 2.61571 22.4452C3.1082 22.5008 3.61792 22.4644 4.11616 22.3571Z" fill="#18D6EA"/>
<path d="M19.4808 22.4257C18.3809 23.0255 17.2484 23.447 16.1963 23.5007C15.1481 23.5544 14.1919 23.2707 13.3104 22.6786C12.8639 22.3931 12.4539 22.0232 12.0591 21.6247C11.8636 21.4235 11.6778 21.2088 11.5034 20.9865C11.4133 20.8754 11.3271 20.7643 11.2447 20.6531L11.1259 20.4864L11.032 20.3484L10.9477 20.222C10.8097 20.0169 10.6085 19.8464 10.3613 19.741C9.68676 19.4593 8.90876 19.7735 8.62515 20.4442C8.47951 20.7873 8.31854 21.1149 8.12117 21.41C7.91996 21.7051 7.69767 21.9792 7.43706 22.2225C6.91775 22.7074 6.25472 23.0868 5.48246 23.3359C4.71403 23.5965 3.85363 23.7268 2.96256 23.7862C2.06957 23.8437 1.14593 23.8303 0.193542 23.7594C0.990712 24.2959 1.89136 24.6696 2.838 24.9302C3.78656 25.187 4.80026 25.3039 5.8523 25.2119C6.89475 25.1142 7.99278 24.7731 8.92983 24.1139C9.2671 23.8801 9.58137 23.6099 9.86497 23.3129C9.92438 23.38 9.98187 23.449 10.0432 23.5141C10.5568 24.0737 11.1623 24.57 11.8368 24.9916C12.519 25.4016 13.2874 25.7255 14.1019 25.8788C14.51 25.9554 14.9239 25.9919 15.3379 25.9919C15.7499 25.9842 16.158 25.9363 16.5509 25.8558C16.9456 25.7772 17.325 25.6546 17.6853 25.509C18.0455 25.3633 18.3866 25.1908 18.7067 24.9973C19.3505 24.6121 19.9177 24.1522 20.4217 23.6521C21.4259 22.648 22.2058 21.5059 22.7787 20.2641C21.6558 21.0517 20.5884 21.8259 19.4808 22.4257Z" fill="#18D6EA"/>
</g>
<defs>
<clipPath id="clip0_1_471">
<rect width="26" height="26" fill="white"/>
</clipPath>
</defs>
</svg>
