<svg width="26" height="26" viewBox="0 0 26 26" fill="none" xmlns="http://www.w3.org/2000/svg">
<g clip-path="url(#clip0_2415_93)">
<path d="M8.46863 0.900391H26V17.7575C26 19.9171 25.1078 21.9883 23.5196 23.5154C21.9314 25.0425 19.7774 25.9004 17.5314 25.9004H0V9.04331C0 6.88367 0.892228 4.81249 2.48041 3.2854C4.06858 1.7583 6.22261 0.900391 8.46863 0.900391Z" fill="url(#paint0_linear_2415_93)"/>
<path d="M20.5416 10.7387L18.8033 11.5045L17.583 12.0423L17.5286 12.0658L15.8508 12.7945C15.8508 12.7883 15.8481 12.782 15.8459 12.7757C15.7469 12.3787 15.5559 12.0084 15.2872 11.6923L15.1321 11.3664L16.8061 10.6288L18.0444 10.0832L19.7979 9.31055C19.8951 9.45632 19.9857 9.60541 20.0699 9.75782L20.528 10.7188L20.5416 10.7387Z" fill="white"/>
<path d="M20.825 15.1536C20.6962 15.6807 20.5092 16.1931 20.2674 16.6821L14.8307 15.7897L14.8819 15.5015C15.2784 15.1917 15.5794 14.7836 15.7523 14.3213L20.825 15.1536Z" fill="white"/>
<path d="M11.0256 15.9853L8.82932 17.4809L7.2592 18.5501C6.88433 18.1564 6.55337 17.7259 6.27176 17.2659L7.83372 16.2018L8.93106 15.4543L10.0659 14.6816L11.0256 15.9853Z" fill="white"/>
<path d="M11.2351 9.41647L10.5561 10.8739L9.56163 10.4454L8.30216 9.90297L6.52911 9.13869C6.85228 8.67784 7.22701 8.25244 7.64659 7.87012L9.58122 8.70345L11.0605 9.34166L11.2351 9.41647Z" fill="white"/>
<path d="M18.9432 14.8447C18.6776 15.8362 18.1436 16.7424 17.3955 17.471C16.6474 18.1996 15.7119 18.7246 14.6843 18.9926C13.6566 19.2607 12.5734 19.2621 11.5449 18.9968C10.5165 18.7315 9.5795 18.2089 8.82932 17.4823C8.43792 17.1022 8.1029 16.6719 7.83372 16.2038L6.27176 17.2678C7.07339 18.5814 8.2659 19.6339 9.69551 20.2897C11.1251 20.9454 12.7263 21.1743 14.2924 20.9468C15.8586 20.7193 17.318 20.0459 18.4824 19.0133C19.6467 17.9808 20.4627 16.6365 20.825 15.1539L18.9432 14.8447Z" fill="white"/>
<path d="M9.58122 8.70289C10.3433 8.17475 11.2232 7.82512 12.1507 7.68188C13.0783 7.53863 14.0278 7.60574 14.9235 7.87784C15.8193 8.14994 16.6366 8.61951 17.3102 9.24911C17.9838 9.87872 18.4951 10.6509 18.8034 11.5042L20.5416 10.7384C20.5383 10.7305 20.5356 10.7227 20.5323 10.7153L20.0743 9.75436C19.9883 9.60231 19.8976 9.45322 19.8022 9.30709C19.0949 8.23941 18.1225 7.35773 16.9725 6.74148C15.8225 6.12524 14.5312 5.7938 13.2148 5.77704C11.8984 5.76027 10.5983 6.05871 9.43176 6.64546C8.26521 7.23221 7.26882 8.08883 6.53238 9.13812L8.30543 9.9024C8.66642 9.4439 9.0964 9.03963 9.58122 8.70289Z" fill="white"/>
<path d="M7.1923 12.2934C7.25879 11.9647 7.35453 11.6422 7.47847 11.3293L5.73752 10.5791C5.05229 12.239 4.99263 14.077 5.56887 15.7747L7.22059 14.65C7.04298 13.8747 7.03335 13.0725 7.1923 12.2934Z" fill="white"/>
<path d="M18.7163 11.2803L17.5178 11.8594L17.4656 11.885L15.8214 12.6786" fill="white"/>
<path d="M9.98653 14.7224L8.9251 15.4454C8.65641 14.9396 8.49025 14.3892 8.43546 13.8237L9.02738 13.4209L9.98653 14.7224Z" fill="white"/>
<path d="M10.7846 11.0026L10.1057 12.46L8.69876 11.8522C8.89011 11.3446 9.17544 10.8746 9.54095 10.4648L10.7846 11.0026Z" fill="white"/>
<path d="M17.6222 14.6284C17.3659 15.5006 16.8423 16.2783 16.1196 16.8602C15.3969 17.4421 14.5086 17.8011 13.5706 17.8906C12.6326 17.98 11.6883 17.7957 10.8609 17.3616C10.0334 16.9275 9.3611 16.2638 8.93162 15.457C8.9291 15.4536 8.92708 15.4499 8.92564 15.446C8.50499 14.6506 8.33903 13.7532 8.44875 12.8671C8.55847 11.981 8.93893 11.1462 9.54204 10.468L9.56217 10.446C10.109 9.84003 10.814 9.38518 11.6045 9.12827C12.3949 8.87137 13.2423 8.82171 14.0594 8.9844C14.8764 9.14709 15.6336 9.51625 16.253 10.0539C16.8723 10.5915 17.3314 11.2781 17.5831 12.0431L17.5287 12.0661L15.8508 12.7943C15.8508 12.788 15.8481 12.7817 15.8459 12.7755C15.6895 12.1427 15.3015 11.5853 14.7528 11.2049C14.2042 10.8246 13.5315 10.6468 12.8577 10.7041C12.184 10.7614 11.5541 11.0499 11.0834 11.5168C10.6126 11.9838 10.3323 12.5981 10.2938 13.2474C10.2552 13.8967 10.461 14.5377 10.8734 15.0531C11.2858 15.5686 11.8774 15.9242 12.54 16.0548C13.2026 16.1854 13.892 16.0824 14.4821 15.7646C15.0722 15.4468 15.5237 14.9354 15.754 14.3239L17.6222 14.6284Z" fill="white"/>
</g>
<defs>
<linearGradient id="paint0_linear_2415_93" x1="0.415651" y1="1.52395" x2="37.0078" y2="38.8752" gradientUnits="userSpaceOnUse">
<stop stop-color="#3B916F"/>
<stop offset="1" stop-color="#096AA5"/>
</linearGradient>
<clipPath id="clip0_2415_93">
<rect width="26" height="25" fill="white" transform="translate(0 0.900391)"/>
</clipPath>
</defs>
</svg>
