<svg width="40" height="40" viewBox="0 0 40 40" fill="none" xmlns="http://www.w3.org/2000/svg">
<circle cx="20" cy="20" r="19.5" stroke="#FF7A29"/>
<path d="M20.0012 7.50293C13.0987 7.50293 7.50244 13.0992 7.50244 20.0017C7.50244 26.2392 12.0724 31.4092 18.0487 32.3504V23.6154H14.8737V20.0017H18.0487V17.2479C18.0487 14.1129 19.9149 12.3842 22.7687 12.3842C24.1362 12.3842 25.5687 12.6279 25.5687 12.6279V15.7017H23.9887C22.4387 15.7017 21.9537 16.6667 21.9537 17.6554V19.9992H25.4174L24.8637 23.6129H21.9537V32.3479C27.9299 31.4117 32.4999 26.2404 32.4999 20.0017C32.4999 13.0992 26.9037 7.50293 20.0012 7.50293Z" fill="#FF7A29"/>
</svg>
