<svg width="40" height="40" viewBox="0 0 40 40" fill="none" xmlns="http://www.w3.org/2000/svg">
<circle cx="20" cy="20" r="19.5" stroke="#FF7A29"/>
<g clip-path="url(#clip0_2430_111)">
<path fill-rule="evenodd" clip-rule="evenodd" d="M31 19.5C31 25.8513 25.8513 31 19.5 31C13.1487 31 8 25.8513 8 19.5C8 13.1487 13.1487 8 19.5 8C25.8513 8 31 13.1487 31 19.5ZM19.9121 16.4898C18.7936 16.955 16.558 17.918 13.2056 19.3786C12.6612 19.5951 12.376 19.8069 12.35 20.014C12.3062 20.3639 12.7444 20.5017 13.3412 20.6894C13.4224 20.7149 13.5065 20.7414 13.5928 20.7694C14.1799 20.9603 14.9698 21.1836 15.3804 21.1924C15.7529 21.2005 16.1686 21.0469 16.6275 20.7318C19.7599 18.6174 21.3768 17.5487 21.4783 17.5256C21.5499 17.5094 21.6492 17.4889 21.7164 17.5487C21.7836 17.6085 21.777 17.7216 21.7699 17.752C21.7265 17.9371 20.0061 19.5365 19.1158 20.3642C18.8383 20.6222 18.6414 20.8053 18.6012 20.8471C18.511 20.9407 18.4191 21.0293 18.3308 21.1144C17.7853 21.6403 17.3762 22.0346 18.3535 22.6786C18.8231 22.9881 19.1989 23.244 19.5738 23.4993C19.9832 23.7781 20.3915 24.0562 20.9199 24.4025C21.0545 24.4908 21.1831 24.5824 21.3083 24.6717C21.7847 25.0114 22.2128 25.3165 22.7416 25.2679C23.0489 25.2396 23.3664 24.9506 23.5276 24.0888C23.9085 22.0522 24.6574 17.6394 24.8305 15.8209C24.8456 15.6616 24.8265 15.4577 24.8112 15.3682C24.7959 15.2787 24.7639 15.1512 24.6476 15.0568C24.5098 14.945 24.2971 14.9214 24.2019 14.9231C23.7694 14.9307 23.1058 15.1614 19.9121 16.4898Z" fill="#FF7A29"/>
</g>
<defs>
<clipPath id="clip0_2430_111">
<rect width="23" height="23" fill="white" transform="translate(8 8)"/>
</clipPath>
</defs>
</svg>
