<svg width="40" height="40" viewBox="0 0 40 40" fill="none" xmlns="http://www.w3.org/2000/svg">
<path d="M27.5162 14.3304C27.3707 14.2552 27.229 14.1727 27.0917 14.0834C26.6925 13.8194 26.3264 13.5084 26.0015 13.1571C25.1884 12.2267 24.8847 11.2829 24.7729 10.6221H24.7774C24.6839 10.0736 24.7225 9.71875 24.7284 9.71875H21.025V24.0389C21.025 24.2312 21.025 24.4212 21.0169 24.609C21.0169 24.6324 21.0147 24.6539 21.0134 24.6791C21.0134 24.6894 21.0134 24.7002 21.0111 24.711C21.0111 24.7137 21.0111 24.7164 21.0111 24.7191C20.9721 25.2329 20.8074 25.7292 20.5315 26.1644C20.2556 26.5996 19.877 26.9604 19.429 27.2149C18.962 27.4806 18.4339 27.6199 17.8967 27.6192C16.1712 27.6192 14.7728 26.2123 14.7728 24.4747C14.7728 22.7371 16.1712 21.3302 17.8967 21.3302C18.2233 21.3299 18.5479 21.3813 18.8584 21.4824L18.8629 17.7117C17.9202 17.5899 16.9624 17.6648 16.0501 17.9317C15.1378 18.1986 14.2906 18.6517 13.5622 19.2624C12.9238 19.817 12.3872 20.4788 11.9764 21.2179C11.8201 21.4874 11.2303 22.5704 11.1588 24.3282C11.1139 25.326 11.4135 26.3596 11.5564 26.7868V26.7958C11.6462 27.0474 11.9944 27.9058 12.5617 28.6295C13.0193 29.21 13.5598 29.72 14.1659 30.1429V30.1339L14.1749 30.1429C15.9677 31.3612 17.9555 31.2812 17.9555 31.2812C18.2996 31.2673 19.4523 31.2813 20.7613 30.6609C22.2132 29.9731 23.0398 28.9485 23.0398 28.9485C23.5678 28.3362 23.9877 27.6385 24.2814 26.8852C24.6165 26.0043 24.7284 24.9477 24.7284 24.5254V16.9283C24.7733 16.9552 25.3717 17.351 25.3717 17.351C25.3717 17.351 26.2337 17.9035 27.5787 18.2633C28.5436 18.5194 29.8436 18.5733 29.8436 18.5733V14.8969C29.3881 14.9463 28.4632 14.8026 27.5162 14.3304Z" fill="#FF7A29"/>
<circle cx="20" cy="20" r="19.5" stroke="#FF7A29"/>
</svg>
