<svg width="40" height="40" viewBox="0 0 40 40" fill="none" xmlns="http://www.w3.org/2000/svg">
<circle cx="20" cy="20" r="19.5" stroke="#FF7A29"/>
<g clip-path="url(#clip0_2430_113)">
<path d="M29.5819 15.4125C29.4632 14.9658 29.2292 14.558 28.9034 14.2301C28.5775 13.9022 28.1713 13.6656 27.7253 13.544C26.0835 13.1025 19.521 13.1025 19.521 13.1025C19.521 13.1025 12.9585 13.1025 11.3167 13.544C10.8707 13.6656 10.4644 13.9022 10.1386 14.2301C9.8128 14.558 9.57881 14.9658 9.46009 15.4125C9.021 17.0615 9.021 20.5003 9.021 20.5003C9.021 20.5003 9.021 23.939 9.46009 25.588C9.57881 26.0348 9.8128 26.4425 10.1386 26.7704C10.4644 27.0983 10.8707 27.3349 11.3167 27.4565C12.9585 27.898 19.521 27.898 19.521 27.898C19.521 27.898 26.0835 27.898 27.7253 27.4565C28.1713 27.3349 28.5775 27.0983 28.9034 26.7704C29.2292 26.4425 29.4632 26.0348 29.5819 25.588C30.021 23.939 30.021 20.5003 30.021 20.5003C30.021 20.5003 30.021 17.0615 29.5819 15.4125Z" fill="#FF7A29"/>
<path d="M17.373 23.623V17.3779L22.8617 20.5005L17.373 23.623Z" fill="#FEFEFE"/>
</g>
<defs>
<clipPath id="clip0_2430_113">
<rect width="21" height="21" fill="white" transform="translate(9 10)"/>
</clipPath>
</defs>
</svg>
